<svg width="16" height="16" viewBox="0 0 16 16" fill="none" xmlns="http://www.w3.org/2000/svg">
<path fill-rule="evenodd" clip-rule="evenodd" d="M8 0.25C3.71979 0.25 0.25 3.71979 0.25 8C0.25 12.2802 3.71979 15.75 8 15.75C12.2802 15.75 15.75 12.2802 15.75 8L15.75 7.99919C15.7454 3.72135 12.2787 0.254627 8.00081 0.25H8ZM1.75 8C1.75 4.54836 4.54799 1.75023 7.99958 1.75C11.4501 1.75394 14.2463 4.55026 14.25 8.00081C14.2496 11.4522 11.4515 14.25 8 14.25C4.54822 14.25 1.75 11.4518 1.75 8ZM12.0575 6.00172C12.3346 5.69384 12.3096 5.21962 12.0017 4.94253C11.6938 4.66544 11.2196 4.69039 10.9425 4.99828L6.97135 9.41069L5.53033 7.96967C5.23744 7.67678 4.76256 7.67678 4.46967 7.96967C4.17678 8.26256 4.17678 8.73744 4.46967 9.03033L6.46967 11.0303C6.61516 11.1758 6.81403 11.2551 7.01972 11.2497C7.2254 11.2443 7.41983 11.1547 7.55747 11.0017L12.0575 6.00172Z" fill="#1E8542"/>
</svg>
