<svg width="24" height="24" viewBox="0 0 24 24" fill="none" xmlns="http://www.w3.org/2000/svg">
<path fill-rule="evenodd" clip-rule="evenodd" d="M12 2C6.47715 2 2 6.47715 2 12C2 17.5228 6.47715 22 12 22C17.5228 22 22 17.5228 22 12C22 6.47715 17.5228 2 12 2ZM0 12C0 5.37258 5.37258 0 12 0C18.6274 0 24 5.37258 24 12C24 18.6274 18.6274 24 12 24C5.37258 24 0 18.6274 0 12Z" fill="#0B4886"/>
<path d="M10.5 10L12 10V18M12 18H14M12 18H10" stroke="#0B4886" stroke-width="2" stroke-linecap="round" stroke-linejoin="round"/>
<circle cx="11.75" cy="6.25" r="1.25" fill="#0B4886"/>
</svg>
