<svg width="16" height="16" viewBox="0 0 16 16" fill="none" xmlns="http://www.w3.org/2000/svg">
<path fill-rule="evenodd" clip-rule="evenodd" d="M7.99998 0.0242004C3.59506 0.0242004 0.0241699 3.59509 0.0241699 8.00001C0.0241699 12.4049 3.59506 15.9758 7.99998 15.9758C12.4049 15.9758 15.9758 12.4049 15.9758 8.00001L15.9758 7.9992C15.971 3.5967 12.4033 0.0289625 8.00079 0.0242004H7.99998ZM1.52417 8.00001C1.52417 4.42366 4.42326 1.52443 7.99955 1.5242C11.5747 1.52828 14.4719 4.42561 14.4758 8.00082C14.4753 11.5769 11.5762 14.4758 7.99998 14.4758C4.42349 14.4758 1.52417 11.5765 1.52417 8.00001ZM5.53033 4.4697C5.23744 4.17681 4.76256 4.17681 4.46967 4.4697C4.17678 4.76259 4.17678 5.23747 4.46967 5.53036L6.93934 8.00003L4.46967 10.4697C4.17678 10.7626 4.17678 11.2375 4.46967 11.5304C4.76256 11.8233 5.23744 11.8233 5.53033 11.5304L8 9.06069L10.4697 11.5304C10.7626 11.8233 11.2374 11.8233 11.5303 11.5304C11.8232 11.2375 11.8232 10.7626 11.5303 10.4697L9.06066 8.00003L11.5303 5.53036C11.8232 5.23747 11.8232 4.76259 11.5303 4.4697C11.2374 4.17681 10.7626 4.17681 10.4697 4.4697L8 6.93937L5.53033 4.4697Z" fill="#9D3333"/>
</svg>